<?xml version="1.0" standalone="no"?>
<!DOCTYPE svg PUBLIC "-//W3C//DTD SVG 20010904//EN"
 "http://www.w3.org/TR/2001/REC-SVG-20010904/DTD/svg10.dtd">
<svg version="1.0" xmlns="http://www.w3.org/2000/svg"
 width="16.000000pt" height="16.000000pt" viewBox="0 0 16.000000 16.000000"
 preserveAspectRatio="xMidYMid meet">
<metadata>
Created by potrace 1.11, written by Peter Selinger 2001-2013
</metadata>
<g transform="translate(0.000000,16.000000) scale(0.001416,-0.001416)"
fill="#000000" stroke="none">
<path d="M4686 10553 c-6 -15 -73 -16 -915 -10 l-909 7 -38 -67 c-20 -38 -74
-129 -118 -203 -44 -74 -91 -156 -105 -181 -34 -59 -147 -256 -170 -294 -16
-27 -101 -172 -259 -445 -30 -52 -69 -120 -85 -150 -17 -30 -44 -77 -62 -105
-17 -27 -38 -63 -46 -80 -22 -42 -43 -79 -50 -85 -3 -3 -56 -93 -118 -200 -61
-107 -116 -202 -121 -210 -5 -8 -35 -60 -66 -115 -32 -55 -81 -138 -109 -185
-55 -91 -106 -178 -290 -500 -65 -113 -128 -221 -140 -240 -23 -37 -108 -182
-169 -290 -20 -36 -86 -148 -145 -250 -59 -102 -148 -255 -198 -340 -49 -85
-128 -220 -175 -300 -46 -80 -118 -203 -158 -275 -41 -71 -77 -132 -80 -135
-4 -3 -27 -41 -51 -85 -25 -44 -51 -89 -58 -100 -11 -18 -9 -28 18 -73 17 -29
31 -55 31 -58 0 -7 116 -209 155 -269 17 -27 49 -81 70 -120 21 -38 78 -138
126 -222 49 -83 97 -167 107 -185 49 -85 66 -114 78 -128 6 -8 15 -25 19 -38
3 -13 29 -60 56 -105 27 -45 54 -89 59 -97 4 -8 48 -85 96 -170 184 -325 211
-370 217 -363 4 3 7 -2 7 -12 0 -18 129 -253 182 -332 15 -23 28 -45 28 -49 0
-9 171 -307 180 -314 4 -3 33 -54 65 -115 31 -60 67 -126 80 -145 19 -31 66
-111 115 -198 8 -15 30 -54 49 -87 19 -33 43 -76 54 -95 59 -108 81 -146 87
-150 3 -3 21 -34 39 -70 19 -36 37 -67 41 -70 4 -3 17 -25 30 -50 12 -25 53
-97 90 -160 37 -63 100 -173 140 -245 40 -71 81 -141 90 -155 10 -14 32 -52
49 -85 18 -33 53 -94 78 -135 25 -41 60 -102 78 -135 18 -33 45 -82 60 -110
15 -27 35 -61 44 -75 10 -14 48 -80 86 -148 37 -68 75 -126 84 -129 9 -2 24
-9 33 -14 19 -9 161 -13 170 -4 6 7 1442 6 3058 -1 663 -2 1217 -5 1233 -4 21
0 27 -5 27 -21 0 -15 4 -19 16 -15 9 3 17 6 20 6 2 0 1 7 -2 15 -4 8 -1 15 5
15 6 0 11 -4 11 -10 0 -6 102 -10 285 -10 183 0 285 4 285 10 0 6 86 10 239
10 l240 0 13 24 c29 55 87 156 138 241 29 50 66 115 83 145 16 30 38 67 48 82
11 14 19 29 19 32 0 3 34 63 75 133 42 71 81 137 87 148 7 11 33 55 58 97 25
43 70 121 101 175 31 54 83 143 115 198 32 55 66 112 74 127 8 16 42 73 75
129 54 90 88 148 152 259 11 19 44 77 74 128 30 52 65 112 78 135 13 23 45 78
71 122 26 44 62 107 80 140 18 33 38 67 45 75 6 8 36 58 65 110 65 116 74 132
140 245 29 50 60 104 69 120 9 17 19 32 24 33 4 2 7 9 7 16 0 8 9 25 20 39 11
13 34 52 52 85 18 33 81 141 139 239 59 98 149 251 200 341 52 89 103 178 114
197 11 18 47 80 79 137 33 57 72 123 87 148 16 25 43 71 60 104 17 32 66 118
110 191 43 73 79 137 79 143 0 6 4 12 8 14 5 2 20 23 34 48 14 25 53 92 86
150 l61 105 -18 30 c-11 16 -32 55 -48 85 -16 30 -36 66 -45 80 -9 14 -29 48
-45 77 -15 28 -58 103 -94 165 -36 62 -83 145 -104 183 -21 39 -53 93 -70 120
-18 28 -42 70 -55 95 -12 25 -26 47 -29 50 -4 3 -13 20 -20 38 -8 18 -26 50
-40 70 -15 20 -30 45 -34 55 -4 10 -36 67 -72 127 -36 61 -65 112 -65 115 0 2
-17 32 -39 67 -21 35 -59 101 -85 148 -26 47 -55 99 -66 115 -10 17 -38 66
-61 110 -22 44 -46 87 -53 95 -6 8 -22 35 -36 60 -13 25 -36 65 -52 90 -15 25
-39 65 -53 90 -14 25 -57 99 -95 165 -38 66 -83 147 -101 180 -17 33 -44 78
-59 100 -15 22 -45 74 -67 115 -22 41 -96 172 -165 290 -68 118 -138 240 -155
270 -17 30 -52 93 -78 140 -26 47 -56 97 -66 112 -11 14 -19 28 -19 30 0 3
-48 87 -106 189 -96 165 -190 331 -262 459 -14 25 -46 80 -71 123 -64 110 -59
100 -136 236 -38 68 -88 156 -110 196 -22 40 -45 79 -51 86 -7 8 -23 38 -38
67 l-26 52 -390 0 c-383 0 -390 0 -390 20 0 20 -8 20 -564 20 -438 0 -566 -3
-570 -13 -5 -9 -7 -9 -12 1 -9 19 -64 15 -64 -4 0 -15 -73 -16 -892 -12 -659
4 -893 8 -896 17 -5 16 -19 14 -26 -6z m2414 -7 c0 -3 -4 -8 -10 -11 -5 -3
-10 -1 -10 4 0 6 5 11 10 11 6 0 10 -2 10 -4z m-3087 -988 c7 -7 23 -35 37
-63 14 -27 33 -58 44 -67 10 -10 16 -18 12 -18 -8 0 69 -146 85 -160 3 -3 13
-22 22 -42 10 -20 21 -40 26 -43 5 -3 23 -33 40 -68 34 -68 73 -139 81 -147 3
-3 11 -16 19 -30 47 -81 47 -86 4 -148 -13 -20 -32 -53 -41 -72 -9 -19 -20
-39 -25 -45 -16 -20 -77 -128 -77 -136 0 -5 -3 -9 -8 -9 -4 0 -15 -17 -25 -37
-10 -21 -34 -65 -53 -98 -20 -33 -46 -78 -59 -101 -12 -22 -28 -50 -35 -61
-11 -17 -10 -27 7 -59 11 -22 225 -450 477 -951 l457 -913 108 0 c59 0 162 3
229 7 l121 6 27 40 c26 39 40 56 129 151 25 27 56 63 68 80 11 17 33 43 47 57
22 23 42 46 130 153 14 16 37 43 52 58 15 16 37 43 50 61 12 18 41 51 63 74
53 55 114 126 134 155 9 13 27 35 41 49 14 15 43 48 65 74 22 27 51 62 65 78
23 28 55 65 112 129 13 15 42 48 63 74 22 27 52 61 67 76 15 16 37 43 50 61
12 18 34 44 48 58 14 14 43 47 65 74 68 81 89 106 120 140 27 29 63 72 135
159 14 16 37 43 52 58 41 43 68 84 68 103 0 9 -9 29 -19 44 -11 15 -34 54 -52
86 -17 33 -36 66 -41 72 -6 7 -24 39 -40 70 -16 32 -35 65 -42 73 -6 8 -18 29
-26 45 -8 17 -17 32 -20 35 -3 3 -10 14 -16 25 -6 11 -23 42 -37 68 -31 55
-32 64 -13 86 12 15 66 108 90 158 6 13 14 23 19 23 4 0 7 4 7 9 0 7 49 95 90
161 5 8 17 31 27 50 9 19 19 37 22 40 4 3 12 16 19 29 8 13 22 39 32 57 11 18
29 50 42 71 13 21 30 50 38 66 7 15 23 30 34 33 12 3 204 4 427 2 454 -3 416
4 459 -83 14 -27 33 -58 44 -67 10 -10 16 -18 12 -18 -8 0 69 -146 85 -160 3
-3 13 -22 22 -42 10 -20 21 -40 26 -43 5 -3 23 -33 40 -68 34 -68 73 -139 81
-147 3 -3 11 -16 19 -30 47 -81 47 -86 4 -148 -13 -20 -32 -53 -41 -72 -9 -19
-20 -39 -25 -45 -16 -20 -77 -128 -77 -136 0 -5 -3 -9 -8 -9 -4 0 -15 -17 -25
-37 -10 -21 -40 -76 -68 -123 -28 -47 -52 -97 -52 -112 0 -18 26 -67 75 -141
42 -63 88 -138 103 -167 15 -29 55 -96 89 -149 35 -53 90 -141 123 -196 99
-165 124 -206 178 -290 28 -44 69 -111 90 -150 21 -38 70 -117 108 -174 38
-57 76 -119 84 -139 8 -19 45 -80 82 -136 38 -56 78 -121 91 -146 12 -25 50
-88 84 -142 l61 -96 346 -4 c387 -3 356 3 399 -83 14 -27 33 -58 44 -67 10
-10 16 -18 12 -18 -8 0 69 -146 85 -160 3 -3 13 -22 22 -42 10 -20 21 -40 26
-43 5 -3 23 -33 40 -68 44 -87 75 -141 84 -145 4 -2 7 -9 7 -15 0 -7 9 -23 20
-37 27 -35 25 -82 -6 -127 -14 -21 -33 -54 -42 -73 -9 -19 -20 -39 -25 -45
-16 -20 -77 -128 -77 -136 0 -5 -3 -9 -8 -9 -4 0 -15 -17 -25 -37 -10 -21 -40
-76 -67 -122 -28 -46 -50 -86 -50 -88 0 -2 -13 -24 -30 -48 -16 -24 -30 -48
-30 -54 0 -6 -4 -11 -9 -11 -5 0 -11 -9 -14 -20 -5 -19 -14 -20 -339 -20
l-335 0 -96 -144 c-52 -79 -107 -167 -122 -196 -15 -30 -98 -160 -185 -290
-87 -130 -170 -261 -185 -290 -15 -29 -98 -159 -184 -289 -86 -130 -175 -267
-196 -306 -21 -38 -83 -136 -137 -217 -88 -133 -96 -148 -82 -162 8 -9 13 -16
9 -16 -8 0 71 -147 86 -160 3 -3 13 -22 22 -42 10 -20 21 -40 26 -43 5 -3 23
-33 40 -68 34 -68 73 -139 81 -147 3 -3 11 -16 19 -30 47 -81 47 -86 4 -148
-13 -20 -32 -53 -41 -72 -9 -19 -20 -39 -25 -45 -16 -20 -77 -128 -77 -136 0
-5 -3 -9 -8 -9 -4 0 -15 -17 -25 -37 -10 -21 -40 -76 -67 -122 -28 -46 -50
-86 -50 -88 0 -2 -13 -24 -30 -48 -16 -24 -30 -48 -30 -54 0 -6 -4 -11 -10
-11 -5 0 -10 -7 -10 -15 0 -13 -55 -15 -435 -15 l-435 0 -27 51 c-58 107 -69
126 -86 153 -11 15 -33 53 -49 85 -17 31 -35 62 -40 68 -6 7 -24 39 -40 70
-16 32 -35 65 -42 73 -7 8 -16 23 -19 33 -6 16 -77 17 -1295 17 l-1288 0 -22
-42 c-24 -49 -54 -101 -63 -108 -3 -3 -13 -21 -22 -40 -10 -19 -40 -73 -67
-119 -28 -46 -50 -86 -50 -88 0 -2 -13 -24 -30 -48 -16 -24 -30 -48 -30 -54 0
-6 -4 -11 -9 -11 -5 0 -11 -9 -14 -20 -5 -20 -12 -20 -433 -18 l-428 3 -32 55
c-18 30 -41 71 -50 90 -10 19 -25 46 -35 60 -10 14 -32 53 -50 85 -17 33 -36
66 -41 72 -6 7 -24 39 -40 70 -16 32 -35 65 -42 73 -6 8 -18 29 -26 45 -8 17
-17 32 -20 35 -3 3 -10 14 -16 25 -6 11 -23 42 -37 68 -31 55 -32 64 -13 86
12 15 66 108 90 158 6 13 14 23 19 23 4 0 7 4 7 9 0 7 49 95 90 161 5 8 17 31
27 50 9 19 19 37 22 40 4 3 12 16 19 29 8 13 22 39 32 57 11 18 29 50 42 71
13 21 30 50 38 66 7 15 23 30 34 33 12 3 204 4 427 2 454 -3 416 4 459 -83 14
-27 33 -58 44 -67 10 -10 16 -18 12 -18 -8 0 69 -146 85 -160 3 -3 13 -22 22
-42 10 -20 22 -40 27 -43 5 -3 21 -33 36 -65 l27 -60 1293 0 c711 0 1299 3
1308 6 9 3 16 10 16 14 0 7 51 98 90 160 5 8 17 31 27 50 9 19 19 37 22 40 4
3 12 16 19 29 8 13 22 39 32 57 11 18 30 51 44 73 15 22 26 44 26 49 0 4 9 18
20 30 21 22 25 22 334 22 l313 0 166 249 c91 137 178 272 192 301 15 30 98
160 185 290 87 130 170 261 185 290 15 29 103 167 195 306 93 139 175 268 183
287 8 19 36 65 61 103 25 38 46 75 46 82 0 8 -9 26 -19 41 -11 15 -34 54 -52
86 -17 33 -36 66 -41 72 -6 7 -24 39 -40 70 -16 32 -35 65 -42 73 -6 8 -18 29
-26 45 -8 17 -17 32 -20 35 -3 3 -10 14 -16 25 -6 11 -23 42 -37 68 -31 55
-32 64 -13 86 12 15 66 108 90 158 6 13 14 23 19 23 4 0 7 4 7 9 0 7 55 106
90 161 6 8 18 32 27 53 10 20 21 37 25 37 5 0 8 6 8 13 0 6 9 23 19 37 19 24
19 24 -8 65 -15 22 -47 74 -70 115 -24 41 -72 118 -107 171 -34 53 -75 120
-90 150 -15 30 -53 92 -84 139 -31 47 -69 109 -84 139 -15 30 -56 97 -90 150
-35 53 -90 141 -123 196 -99 165 -124 206 -178 290 -28 44 -69 112 -90 150
-22 39 -74 123 -117 188 -43 65 -78 124 -78 130 0 6 -17 37 -37 69 l-38 58
-210 0 -210 0 -30 -37 c-17 -20 -44 -53 -62 -72 -17 -20 -42 -48 -55 -63 -13
-15 -42 -48 -63 -74 -22 -27 -52 -61 -67 -76 -15 -16 -37 -43 -50 -61 -12 -18
-34 -44 -48 -58 -14 -14 -43 -47 -65 -74 -68 -81 -89 -106 -120 -140 -27 -29
-63 -72 -135 -159 -14 -16 -37 -43 -52 -58 -15 -16 -37 -43 -50 -61 -23 -33
-44 -56 -123 -141 -25 -27 -56 -63 -68 -80 -11 -17 -33 -43 -47 -57 -22 -23
-42 -46 -130 -153 -14 -16 -37 -43 -52 -58 -15 -16 -37 -43 -50 -61 -23 -33
-44 -56 -123 -141 -25 -27 -56 -63 -68 -80 -11 -17 -33 -43 -47 -57 -14 -14
-43 -48 -65 -74 -22 -27 -47 -56 -55 -65 -8 -9 -30 -35 -49 -59 l-33 -42 31
-50 c17 -28 31 -55 31 -60 0 -5 3 -9 8 -9 4 0 13 -15 21 -32 8 -18 20 -41 28
-50 8 -9 28 -43 44 -75 34 -67 72 -136 79 -143 3 -3 11 -16 19 -30 47 -81 47
-86 4 -148 -13 -20 -32 -53 -41 -72 -9 -19 -20 -39 -25 -45 -16 -20 -77 -128
-77 -136 0 -5 -3 -9 -8 -9 -4 0 -15 -17 -25 -37 -10 -21 -40 -76 -67 -122 -28
-46 -50 -86 -50 -88 0 -2 -13 -24 -30 -48 -16 -24 -30 -48 -30 -54 0 -8 -138
-11 -453 -11 l-453 0 -18 33 c-42 79 -62 115 -79 141 -11 15 -33 53 -49 85
-17 31 -35 62 -40 68 -6 7 -24 39 -40 70 -16 32 -35 65 -42 73 -6 8 -18 29
-26 45 -8 17 -17 32 -20 35 -3 3 -10 14 -16 25 -6 11 -23 42 -37 68 -31 55
-32 64 -13 86 12 15 66 108 90 158 6 13 14 23 19 23 4 0 7 4 7 9 0 7 49 95 90
161 5 8 17 31 27 50 9 19 19 37 22 40 4 3 12 16 19 29 8 13 22 38 32 56 10 18
23 41 30 51 10 16 -56 153 -465 971 l-476 953 -297 2 -296 3 -32 55 c-18 30
-41 71 -50 90 -10 19 -25 46 -35 60 -10 14 -32 53 -50 85 -17 33 -36 66 -41
72 -6 7 -24 39 -40 70 -16 32 -35 65 -42 73 -6 8 -18 29 -26 45 -8 17 -17 32
-20 35 -3 3 -10 14 -16 25 -6 11 -23 42 -37 68 -31 55 -32 64 -13 86 12 15 66
108 90 158 6 13 14 23 19 23 4 0 7 4 7 9 0 7 49 95 90 161 5 8 17 31 27 50 9
19 19 37 22 40 4 3 12 16 19 29 8 13 22 39 32 57 11 18 29 50 42 71 13 21 30
50 37 66 l14 27 429 0 c331 0 432 -3 441 -12z"/>
</g>
</svg>
